<?xml version="1.0" encoding="iso-8859-1"?>
<!-- Generator: Adobe Illustrator 19.0.0, SVG Export Plug-In . SVG Version: 6.00 Build 0)  -->
<svg version="1.1" id="Capa_1" xmlns="http://www.w3.org/2000/svg" xmlns:xlink="http://www.w3.org/1999/xlink" x="0px" y="0px"
	 viewBox="0 0 512 512" style="enable-background:new 0 0 512 512;" xml:space="preserve">
<g>
	<g>
		<g>
			<path d="M512,432V0H0v432h176v48h-32v32h224v-32h-32v-48H512z M304,480h-96v-48h96V480z M176,400H32V32h448v288H192v32h288v48
				H176z"/>
			<polygon points="148.688,100.688 73.376,176 148.688,251.312 171.312,228.688 118.624,176 171.312,123.312 			"/>
			<polygon points="363.312,251.312 438.624,176 363.312,100.688 340.688,123.312 393.376,176 340.688,228.688 			"/>
			
				<rect x="240.001" y="104.439" transform="matrix(0.8944 0.4472 -0.4472 0.8944 105.7312 -95.9068)" width="32" height="143.104"/>
			<rect x="64" y="320" width="32" height="32"/>
			<rect x="128" y="320" width="32" height="32"/>
		</g>
	</g>
</g>
<g>
</g>
<g>
</g>
<g>
</g>
<g>
</g>
<g>
</g>
<g>
</g>
<g>
</g>
<g>
</g>
<g>
</g>
<g>
</g>
<g>
</g>
<g>
</g>
<g>
</g>
<g>
</g>
<g>
</g>
</svg>
